<svg width="800" height="300" viewBox="0 0 800 300" xmlns="http://www.w3.org/2000/svg">
  <defs>
    <linearGradient id="grad-arrow" x1="0%" y1="0%" x2="100%" y2="0%">
      <stop offset="0%" style="stop-color:#003385;stop-opacity:1" />
      <stop offset="100%" style="stop-color:#A50021;stop-opacity:1" />
    </linearGradient>

    <linearGradient id="grad-gear" x1="0%" y1="0%" x2="100%" y2="100%">
      <stop offset="0%" style="stop-color:#FFCC00;stop-opacity:1" />
      <stop offset="100%" style="stop-color:#FF6600;stop-opacity:1" />
    </linearGradient>

    <g id="gear">
      <path fill="url(#grad-gear)" d="M45,22.5 L55,22.5 L57.5,35 A40,40 0 0,1 65,39 L77,33 L83,40 L78,52 A40,40 0 0,1 83,60 L97,63 L97,72 L83,75 A40,40 0 0,1 78,83 L83,95 L77,102 L65,96 A40,40 0 0,1 57.5,100 L55,112.5 L45,112.5 L42.5,100 A40,40 0 0,1 35,96 L23,102 L17,95 L22,83 A40,40 0 0,1 17,75 L3,72 L3,63 L17,60 A40,40 0 0,1 22,52 L17,40 L23,33 L35,39 A40,40 0 0,1 42.5,35 Z M50,45 A22.5,22.5 0 1,0 50,90 A22.5,22.5 0 1,0 50,45 Z"/>
    </g>
  </defs>

  <text x="400" y="140" font-family="Arial, Helvetica, sans-serif" font-weight="900" font-size="110" text-anchor="middle" fill="#003385" transform="scale(1.3, 1)">REMIS</text>

  <path d="M150,150 Q120,80 300,50" fill="none" stroke="url(#grad-arrow)" stroke-width="8" marker-end="url(#arrowhead)"/>
  <polygon points="300,35 300,65 340,50" fill="#A50021"/>

  <path d="M400,240 Q650,220 750,140" fill="none" stroke="url(#grad-arrow)" stroke-width="8" />
  <polygon points="730,140 760,160 770,120" fill="#A50021" transform="rotate(-20, 750, 140)"/>
  
  <path d="M150,150 Q120,200 180,220" fill="none" stroke="#003385" stroke-width="8" />
  <polygon points="180,205 180,235 210,220" fill="#003385" transform="rotate(20, 180, 220)"/>

  <use href="#gear" x="200" y="130" transform="scale(0.8) rotate(15, 250, 180)" />
  <use href="#gear" x="300" y="140" transform="scale(0.8) rotate(-10, 350, 190)" />
  <use href="#gear" x="420" y="120" transform="scale(0.9)" />

</svg>